<!-- square-github icon by Free Icons (https://free-icons.github.io/free-icons/) -->
<!-- <svg xmlns="http://www.w3.org/2000/svg" height="1em" fill="#37515F" viewBox="0 0 512 512">
    <path
        d="M 512 73.14285714285714 Q 510.85714285714283 42.285714285714285 490.2857142857143 21.714285714285715 L 490.2857142857143 21.714285714285715 L 490.2857142857143 21.714285714285715 Q 469.7142857142857 1.1428571428571428 438.85714285714283 0 L 73.14285714285714 0 L 73.14285714285714 0 Q 42.285714285714285 1.1428571428571428 21.714285714285715 21.714285714285715 Q 1.1428571428571428 42.285714285714285 0 73.14285714285714 L 0 438.85714285714283 L 0 438.85714285714283 Q 1.1428571428571428 469.7142857142857 21.714285714285715 490.2857142857143 Q 42.285714285714285 510.85714285714283 73.14285714285714 512 L 438.85714285714283 512 L 438.85714285714283 512 Q 469.7142857142857 510.85714285714283 490.2857142857143 490.2857142857143 Q 510.85714285714283 469.7142857142857 512 438.85714285714283 L 512 73.14285714285714 L 512 73.14285714285714 Z M 304 429.7142857142857 Q 304 426.2857142857143 304 416 Q 304 394.2857142857143 304 365.7142857142857 Q 302.85714285714283 339.42857142857144 291.42857142857144 331.42857142857144 Q 324.57142857142856 329.14285714285717 350.85714285714283 315.42857142857144 Q 376 300.57142857142856 378.2857142857143 248 Q 377.14285714285717 219.42857142857142 358.85714285714283 203.42857142857142 Q 360 198.85714285714286 362.2857142857143 185.14285714285714 Q 363.42857142857144 171.42857142857142 356.57142857142856 152 Q 342.85714285714283 149.71428571428572 324.57142857142856 160 Q 306.2857142857143 170.28571428571428 304 171.42857142857142 Q 304 171.42857142857142 304 171.42857142857142 Q 281.14285714285717 165.71428571428572 257.14285714285717 165.71428571428572 Q 232 165.71428571428572 209.14285714285714 171.42857142857142 Q 206.85714285714286 170.28571428571428 188.57142857142858 160 Q 170.28571428571428 149.71428571428572 156.57142857142858 152 Q 149.71428571428572 171.42857142857142 150.85714285714286 185.14285714285714 Q 153.14285714285714 198.85714285714286 155.42857142857142 203.42857142857142 Q 137.14285714285714 219.42857142857142 137.14285714285714 248 Q 138.28571428571428 300.57142857142856 163.42857142857142 314.2857142857143 Q 188.57142857142858 329.14285714285717 221.71428571428572 331.42857142857144 Q 213.71428571428572 338.2857142857143 210.28571428571428 356.57142857142856 Q 201.14285714285714 361.14285714285717 184 361.14285714285717 Q 168 361.14285714285717 154.28571428571428 340.57142857142856 Q 146.28571428571428 328 136 324.57142857142856 Q 126.85714285714286 321.14285714285717 125.71428571428571 321.14285714285717 Q 113.14285714285714 322.2857142857143 117.71428571428571 326.85714285714283 Q 122.28571428571429 332.57142857142856 124.57142857142857 332.57142857142856 Q 133.71428571428572 338.2857142857143 139.42857142857142 348.57142857142856 Q 145.14285714285714 358.85714285714283 145.14285714285714 360 Q 156.57142857142858 384 181.71428571428572 384 Q 206.85714285714286 385.14285714285717 209.14285714285714 382.85714285714283 Q 209.14285714285714 390.85714285714283 209.14285714285714 400 Q 209.14285714285714 410.2857142857143 209.14285714285714 418.2857142857143 Q 209.14285714285714 422.85714285714283 209.14285714285714 426.2857142857143 Q 209.14285714285714 428.57142857142856 210.28571428571428 429.7142857142857 Q 210.28571428571428 438.85714285714283 196.57142857142858 438.85714285714283 Q 139.42857142857142 418.2857142857143 104 370.2857142857143 Q 69.71428571428571 321.14285714285717 68.57142857142857 257.14285714285717 Q 69.71428571428571 177.14285714285714 121.14285714285714 125.71428571428571 Q 172.57142857142858 74.28571428571429 253.71428571428572 73.14285714285714 Q 333.7142857142857 74.28571428571429 387.42857142857144 125.71428571428571 Q 441.14285714285717 177.14285714285714 443.42857142857144 257.14285714285717 Q 442.2857142857143 321.14285714285717 408 370.2857142857143 Q 374.85714285714283 418.2857142857143 316.57142857142856 438.85714285714283 Q 302.85714285714283 438.85714285714283 304 429.7142857142857 L 304 429.7142857142857 Z M 200 366.85714285714283 Q 200 363.42857142857144 203.42857142857142 363.42857142857144 Q 208 363.42857142857144 208 365.7142857142857 Q 208 368 204.57142857142858 369.14285714285717 Q 201.14285714285714 369.14285714285717 200 366.85714285714283 L 200 366.85714285714283 Z M 189.71428571428572 370.2857142857143 Q 186.28571428571428 370.2857142857143 185.14285714285714 368 Q 186.28571428571428 365.7142857142857 189.71428571428572 364.57142857142856 Q 193.14285714285714 364.57142857142856 194.28571428571428 368 Q 193.14285714285714 370.2857142857143 189.71428571428572 370.2857142857143 L 189.71428571428572 370.2857142857143 Z M 173.71428571428572 368 Q 170.28571428571428 366.85714285714283 170.28571428571428 364.57142857142856 Q 171.42857142857142 362.2857142857143 174.85714285714286 362.2857142857143 Q 178.28571428571428 363.42857142857144 178.28571428571428 366.85714285714283 Q 177.14285714285714 369.14285714285717 173.71428571428572 368 L 173.71428571428572 368 Z M 158.85714285714286 360 Q 156.57142857142858 356.57142857142856 157.71428571428572 355.42857142857144 Q 160 353.14285714285717 163.42857142857142 355.42857142857144 Q 165.71428571428572 358.85714285714283 164.57142857142858 360 Q 162.28571428571428 362.2857142857143 158.85714285714286 360 L 158.85714285714286 360 Z M 149.71428571428572 348.57142857142856 Q 147.42857142857142 345.14285714285717 149.71428571428572 344 Q 152 342.85714285714283 154.28571428571428 345.14285714285717 Q 155.42857142857142 348.57142857142856 154.28571428571428 349.7142857142857 Q 152 350.85714285714283 149.71428571428572 348.57142857142856 L 149.71428571428572 348.57142857142856 Z M 142.85714285714286 338.2857142857143 Q 140.57142857142858 336 141.71428571428572 333.7142857142857 Q 144 332.57142857142856 146.28571428571428 334.85714285714283 Q 147.42857142857142 337.14285714285717 146.28571428571428 338.2857142857143 Q 144 340.57142857142856 142.85714285714286 338.2857142857143 L 142.85714285714286 338.2857142857143 Z M 136 330.2857142857143 Q 133.71428571428572 329.14285714285717 133.71428571428572 328 Q 134.85714285714286 326.85714285714283 137.14285714285714 326.85714285714283 Q 139.42857142857142 329.14285714285717 138.28571428571428 330.2857142857143 Q 138.28571428571428 331.42857142857144 136 330.2857142857143 L 136 330.2857142857143 Z"
    />
</svg> -->

<svg viewBox="0 0 73 73" version="1.1" xmlns="http://www.w3.org/2000/svg" xmlns:xlink="http://www.w3.org/1999/xlink" fill="#ffffff" stroke="#ffffff">
    <g id="SVGRepo_bgCarrier" stroke-width="0"></g>
    <g id="SVGRepo_tracerCarrier" stroke-linecap="round" stroke-linejoin="round"></g>
    <g id="SVGRepo_iconCarrier">
        <title>team-collaboration/version-control/github</title>
        <desc>Created with Sketch.</desc>
        <defs></defs>
        <g id="team-collaboration/version-control/github" stroke="none" stroke-width="1" fill="none" fill-rule="evenodd">
        <g id="container" transform="translate(2.000000, 2.000000)" fill-rule="nonzero">
            <rect id="mask" stroke="#37515F" stroke-width="2" fill="#37515F" x="-1" y="-1" width="71" height="71" rx="14"></rect>
            <path d="M58.3067362,21.4281798 C55.895743,17.2972267 52.6253846,14.0267453 48.4948004,11.615998 C44.3636013,9.20512774 39.8535636,8 34.9614901,8 C30.0700314,8 25.5585181,9.20549662 21.4281798,11.615998 C17.2972267,14.0266224 14.0269912,17.2972267 11.615998,21.4281798 C9.20537366,25.5590099 8,30.0699084 8,34.9607523 C8,40.8357654 9.71405782,46.1187277 13.1430342,50.8109917 C16.5716416,55.5036246 21.0008949,58.7507436 26.4304251,60.5527176 C27.0624378,60.6700211 27.5302994,60.5875152 27.8345016,60.3072901 C28.1388268,60.0266961 28.290805,59.6752774 28.290805,59.2545094 C28.290805,59.1842994 28.2847799,58.5526556 28.2730988,57.3588401 C28.2610487,56.1650247 28.2553926,55.1235563 28.2553926,54.2349267 L27.4479164,54.3746089 C26.9330843,54.468919 26.2836113,54.5088809 25.4994975,54.4975686 C24.7157525,54.4866252 23.9021284,54.4044881 23.0597317,54.2517722 C22.2169661,54.1004088 21.4330982,53.749359 20.7075131,53.1993604 C19.982297,52.6493618 19.4674649,51.9294329 19.1631397,51.0406804 L18.8120898,50.2328353 C18.5780976,49.6950097 18.2097104,49.0975487 17.7064365,48.4426655 C17.2031625,47.7871675 16.6942324,47.3427912 16.1794003,47.108799 L15.9336039,46.9328437 C15.7698216,46.815909 15.6178435,46.6748743 15.4773006,46.511215 C15.3368806,46.3475556 15.2317501,46.1837734 15.1615401,46.0197452 C15.0912072,45.855594 15.1494901,45.7209532 15.3370036,45.6153308 C15.5245171,45.5097084 15.8633939,45.4584343 16.3551097,45.4584343 L17.0569635,45.5633189 C17.5250709,45.6571371 18.104088,45.9373622 18.7947525,46.4057156 C19.4850481,46.8737001 20.052507,47.4821045 20.4972521,48.230683 C21.0358155,49.1905062 21.6846737,49.9218703 22.4456711,50.4251443 C23.2060537,50.9284182 23.9727072,51.1796248 24.744894,51.1796248 C25.5170807,51.1796248 26.1840139,51.121096 26.7459396,51.0046532 C27.3072505,50.8875956 27.8338868,50.7116403 28.3256025,50.477771 C28.5362325,48.9090515 29.1097164,47.7039238 30.0455624,46.8615271 C28.7116959,46.721353 27.5124702,46.5102313 26.4472706,46.2295144 C25.3826858,45.9484285 24.2825656,45.4922482 23.1476478,44.8597436 C22.0121153,44.2280998 21.0701212,43.44374 20.3214198,42.5080169 C19.5725954,41.571802 18.9580429,40.3426971 18.4786232,38.821809 C17.9989575,37.300306 17.7590632,35.5451796 17.7590632,33.5559381 C17.7590632,30.7235621 18.6837199,28.3133066 20.5326645,26.3238191 C19.6665366,24.1944035 19.7483048,21.8072644 20.778215,19.1626478 C21.4569523,18.951772 22.4635002,19.1100211 23.7973667,19.6364115 C25.1314792,20.1630477 26.1082708,20.6141868 26.7287253,20.9882301 C27.3491798,21.3621504 27.8463057,21.6790175 28.2208409,21.9360032 C30.3978419,21.3277217 32.644438,21.0235195 34.9612442,21.0235195 C37.2780503,21.0235195 39.5251383,21.3277217 41.7022622,21.9360032 L43.0362517,21.0938524 C43.9484895,20.5319267 45.0257392,20.0169716 46.2654186,19.5488642 C47.5058357,19.0810026 48.4543466,18.9521409 49.1099676,19.1630167 C50.1627483,21.8077563 50.2565666,24.1947724 49.3901927,26.324188 C51.2390143,28.3136755 52.1640399,30.7245457 52.1640399,33.556307 C52.1640399,35.5455485 51.9232849,37.3062081 51.444357,38.8393922 C50.9648143,40.3728223 50.3449746,41.6006975 49.5845919,42.5256002 C48.8233486,43.4503799 47.8753296,44.2285916 46.7404118,44.8601125 C45.6052481,45.4921252 44.504759,45.9483056 43.4401742,46.2293914 C42.3750975,46.5104772 41.1758719,46.7217219 39.8420054,46.8621419 C41.0585683,47.9149226 41.6669728,49.5767225 41.6669728,51.846804 L41.6669728,59.2535257 C41.6669728,59.6742937 41.8132948,60.0255895 42.1061847,60.3063064 C42.3987058,60.5865315 42.8606653,60.6690374 43.492678,60.5516109 C48.922946,58.7498829 53.3521992,55.5026409 56.7806837,50.810008 C60.2087994,46.117744 61.923472,40.8347817 61.923472,34.9597686 C61.9222424,30.0695396 60.7162539,25.5590099 58.3067362,21.4281798 Z" id="Shape" fill="#ffffff"></path>
        </g> 
    </g>
    </g>
</svg>